<svg width="182" height="170" viewBox="0 0 182 170" fill="none" xmlns="http://www.w3.org/2000/svg">
<path d="M65.0147 162.072C64.3827 162.072 63.8027 161.924 63.2747 161.628C62.7467 161.332 62.3267 160.916 62.0147 160.38C61.7027 159.836 61.5467 159.212 61.5467 158.508C61.5467 157.724 61.7227 156.976 62.0747 156.264C62.4347 155.544 62.8987 154.968 63.4667 154.536C64.0427 154.104 64.6347 153.888 65.2427 153.888C65.5867 153.888 65.8827 153.932 66.1307 154.02C66.3787 154.1 66.6147 154.212 66.8387 154.356C66.8627 154.308 66.9027 154.268 66.9587 154.236C67.0147 154.204 67.0787 154.188 67.1507 154.188C67.2547 154.188 67.3427 154.224 67.4147 154.296C67.4867 154.368 67.5227 154.456 67.5227 154.56V155.328C67.5227 155.432 67.4827 155.524 67.4027 155.604C67.3307 155.676 67.2427 155.712 67.1387 155.712C67.0347 155.712 66.9427 155.676 66.8627 155.604C66.7907 155.532 66.7547 155.444 66.7547 155.34V155.244C66.5787 155.076 66.3747 154.936 66.1427 154.824C65.9107 154.704 65.6107 154.644 65.2427 154.644C64.7707 154.644 64.3107 154.824 63.8627 155.184C63.4147 155.544 63.0467 156.024 62.7587 156.624C62.4787 157.216 62.3387 157.844 62.3387 158.508C62.3387 159.076 62.4627 159.572 62.7107 159.996C62.9587 160.42 63.2867 160.748 63.6947 160.98C64.1027 161.204 64.5427 161.316 65.0147 161.316C65.9347 161.316 66.6827 160.94 67.2587 160.188C67.3067 160.132 67.3507 160.096 67.3907 160.08C67.4387 160.056 67.4947 160.044 67.5587 160.044C67.6627 160.044 67.7507 160.08 67.8227 160.152C67.9027 160.216 67.9427 160.308 67.9427 160.428C67.9427 160.524 67.9187 160.6 67.8707 160.656C67.5347 161.112 67.1187 161.464 66.6227 161.712C66.1267 161.952 65.5907 162.072 65.0147 162.072ZM69.7218 162.072C69.6178 162.072 69.5258 162.036 69.4458 161.964C69.3738 161.884 69.3378 161.792 69.3378 161.688V154.428C69.3378 154.276 69.3578 154.164 69.3978 154.092C69.4458 154.02 69.5338 153.972 69.6618 153.948C69.7898 153.924 69.9978 153.912 70.2858 153.912H70.6338C71.9858 153.912 73.0258 154.128 73.7538 154.56C74.4818 154.992 74.8458 155.604 74.8458 156.396C74.8458 157.452 74.1218 158.236 72.6738 158.748C73.0498 158.988 73.4618 159.344 73.9098 159.816C74.3658 160.28 74.7618 160.848 75.0978 161.52C75.1298 161.56 75.1458 161.616 75.1458 161.688C75.1458 161.792 75.1098 161.884 75.0378 161.964C74.9658 162.036 74.8738 162.072 74.7618 162.072C74.6258 162.072 74.5138 162 74.4258 161.856C73.3058 160.008 72.2298 159.084 71.1978 159.084C70.9338 159.084 70.5658 159.12 70.0938 159.192V161.688C70.0938 161.792 70.0578 161.884 69.9858 161.964C69.9138 162.036 69.8258 162.072 69.7218 162.072ZM70.0938 158.448C70.7178 158.432 71.3338 158.352 71.9418 158.208C72.5578 158.056 73.0698 157.828 73.4778 157.524C73.8858 157.22 74.0898 156.844 74.0898 156.396C74.0898 155.828 73.7858 155.396 73.1778 155.1C72.5698 154.804 71.7098 154.656 70.5978 154.656C70.3738 154.656 70.2058 154.66 70.0938 154.668V158.448ZM81.7302 162.084C81.6502 162.084 81.5742 162.06 81.5022 162.012C81.4382 161.964 81.3942 161.9 81.3702 161.82L80.3862 158.964L77.3982 159.624L76.5222 161.832C76.4982 161.904 76.4542 161.96 76.3902 162C76.3262 162.048 76.2542 162.072 76.1742 162.072C76.0702 162.072 75.9822 162.036 75.9102 161.964C75.8462 161.892 75.8142 161.8 75.8142 161.688C75.8142 161.64 75.8302 161.572 75.8622 161.484L76.5222 159.792C76.4502 159.816 76.3782 159.828 76.3062 159.828C76.2102 159.82 76.1302 159.784 76.0662 159.72C76.0022 159.648 75.9702 159.56 75.9702 159.456C75.9702 159.368 75.9982 159.288 76.0542 159.216C76.1102 159.144 76.1782 159.1 76.2582 159.084L76.8582 158.952L78.7782 154.044C78.8102 153.972 78.8622 153.916 78.9342 153.876C79.0062 153.828 79.0782 153.804 79.1502 153.804C79.2302 153.804 79.3022 153.828 79.3662 153.876C79.4302 153.916 79.4782 153.976 79.5102 154.056L82.0422 161.424C82.0902 161.568 82.1142 161.664 82.1142 161.712C82.1142 161.808 82.0782 161.896 82.0062 161.976C81.9342 162.048 81.8422 162.084 81.7302 162.084ZM80.1222 158.244L79.1022 155.256L77.7222 158.76L80.1222 158.244ZM83.8549 162.084C83.7509 162.084 83.6589 162.044 83.5789 161.964C83.4989 161.884 83.4589 161.792 83.4589 161.688V154.344C83.4589 154.24 83.4949 154.152 83.5669 154.08C83.6469 154 83.7429 153.96 83.8549 153.96H88.9309C89.0429 153.96 89.1349 153.996 89.2069 154.068C89.2789 154.14 89.3149 154.232 89.3149 154.344C89.3149 154.448 89.2749 154.54 89.1949 154.62C89.1229 154.692 89.0349 154.728 88.9309 154.728H84.2389V157.428H87.8749C87.9789 157.428 88.0669 157.468 88.1389 157.548C88.2189 157.62 88.2589 157.712 88.2589 157.824C88.2589 157.928 88.2189 158.02 88.1389 158.1C88.0669 158.172 87.9789 158.208 87.8749 158.208H84.2389V161.688C84.2389 161.8 84.1989 161.896 84.1189 161.976C84.0469 162.048 83.9589 162.084 83.8549 162.084ZM92.5207 162.072C92.4167 162.072 92.3287 162.036 92.2567 161.964C92.1847 161.884 92.1487 161.792 92.1487 161.688V154.716H89.8807C89.7767 154.716 89.6847 154.68 89.6047 154.608C89.5327 154.536 89.4967 154.448 89.4967 154.344C89.4967 154.24 89.5327 154.152 89.6047 154.08C89.6847 154 89.7767 153.96 89.8807 153.96H95.1727C95.2767 153.96 95.3647 153.996 95.4367 154.068C95.5087 154.14 95.5447 154.232 95.5447 154.344C95.5447 154.448 95.5087 154.536 95.4367 154.608C95.3647 154.68 95.2767 154.716 95.1727 154.716H92.9047V161.688C92.9047 161.792 92.8647 161.884 92.7847 161.964C92.7127 162.036 92.6247 162.072 92.5207 162.072ZM98.9342 162.072C98.2222 162.072 97.6142 161.92 97.1102 161.616C96.6142 161.304 96.2662 160.9 96.0662 160.404C96.0182 160.324 95.9942 160.244 95.9942 160.164C95.9942 160.052 96.0342 159.96 96.1142 159.888C96.1942 159.808 96.2902 159.768 96.4022 159.768C96.6022 159.768 96.7342 159.872 96.7982 160.08C96.9342 160.456 97.1982 160.764 97.5902 161.004C97.9902 161.236 98.4382 161.352 98.9342 161.352C99.3262 161.352 99.6742 161.284 99.9782 161.148C100.29 161.012 100.53 160.828 100.698 160.596C100.874 160.364 100.962 160.104 100.962 159.816C100.962 159.448 100.81 159.128 100.506 158.856C100.202 158.584 99.6862 158.348 98.9582 158.148C97.2862 157.692 96.4502 156.948 96.4502 155.916C96.4502 155.524 96.5582 155.176 96.7742 154.872C96.9982 154.568 97.3182 154.328 97.7342 154.152C98.1582 153.976 98.6502 153.888 99.2102 153.888C100.002 153.888 100.618 154.04 101.058 154.344C101.498 154.64 101.718 155.04 101.718 155.544C101.718 155.648 101.682 155.74 101.61 155.82C101.538 155.892 101.45 155.928 101.346 155.928C101.25 155.928 101.166 155.896 101.094 155.832C101.03 155.768 100.994 155.692 100.986 155.604C100.946 155.3 100.762 155.052 100.434 154.86C100.114 154.668 99.6942 154.572 99.1742 154.572C98.5502 154.572 98.0662 154.688 97.7222 154.92C97.3862 155.152 97.2182 155.472 97.2182 155.88C97.2182 156.224 97.3742 156.516 97.6862 156.756C98.0062 156.996 98.4942 157.208 99.1502 157.392C100.014 157.632 100.658 157.948 101.082 158.34C101.514 158.724 101.73 159.196 101.73 159.756C101.73 160.188 101.602 160.584 101.346 160.944C101.09 161.296 100.746 161.572 100.314 161.772C99.8822 161.972 99.4222 162.072 98.9342 162.072ZM103.119 162C103.007 162 102.911 161.964 102.831 161.892C102.759 161.82 102.723 161.732 102.723 161.628C102.723 161.524 102.759 161.44 102.831 161.376C102.911 161.304 103.007 161.268 103.119 161.268H104.259V154.692H103.119C103.007 154.692 102.911 154.656 102.831 154.584C102.759 154.512 102.723 154.424 102.723 154.32C102.723 154.216 102.759 154.132 102.831 154.068C102.911 153.996 103.007 153.96 103.119 153.96H106.155C106.259 153.96 106.347 153.996 106.419 154.068C106.491 154.132 106.527 154.216 106.527 154.32C106.527 154.424 106.491 154.512 106.419 154.584C106.347 154.656 106.259 154.692 106.155 154.692H105.027V161.268H106.155C106.267 161.268 106.355 161.304 106.419 161.376C106.491 161.44 106.527 161.524 106.527 161.628C106.527 161.732 106.491 161.82 106.419 161.892C106.347 161.964 106.259 162 106.155 162H103.119ZM108.371 162.084C108.267 162.084 108.175 162.044 108.095 161.964C108.015 161.884 107.975 161.792 107.975 161.688V154.344C107.975 154.24 108.011 154.152 108.083 154.08C108.163 154 108.259 153.96 108.371 153.96H113.447C113.559 153.96 113.651 153.996 113.723 154.068C113.795 154.14 113.831 154.232 113.831 154.344C113.831 154.448 113.791 154.54 113.711 154.62C113.639 154.692 113.551 154.728 113.447 154.728H108.755V157.428H112.391C112.495 157.428 112.583 157.468 112.655 157.548C112.735 157.62 112.775 157.712 112.775 157.824C112.775 157.928 112.735 158.02 112.655 158.1C112.583 158.172 112.495 158.208 112.391 158.208H108.755V161.688C108.755 161.8 108.715 161.896 108.635 161.976C108.563 162.048 108.475 162.084 108.371 162.084ZM116.148 162.072C116.044 162.072 115.956 162.032 115.884 161.952C115.812 161.872 115.776 161.784 115.776 161.688C115.776 161.608 115.8 161.532 115.848 161.46L117.024 159.48L114.132 154.512C114.076 154.432 114.048 154.352 114.048 154.272C114.048 154.176 114.088 154.092 114.168 154.02C114.248 153.94 114.34 153.9 114.444 153.9C114.5 153.9 114.556 153.92 114.612 153.96C114.676 153.992 114.724 154.036 114.756 154.092L117.468 158.736L120.228 154.092C120.3 153.964 120.408 153.9 120.552 153.9C120.648 153.9 120.736 153.936 120.816 154.008C120.896 154.08 120.936 154.168 120.936 154.272C120.936 154.344 120.9 154.436 120.828 154.548L116.472 161.88C116.44 161.936 116.392 161.98 116.328 162.012C116.272 162.052 116.212 162.072 116.148 162.072Z" fill="#979AF8"/>
<g filter="url(#filter0_f)">
<path d="M90.5 14L104.981 58.5684H151.843L113.931 86.1132L128.412 130.682L90.5 103.137L52.5879 130.682L67.069 86.1132L29.1569 58.5684H76.0188L90.5 14Z" fill="url(#paint0_radial)"/>
</g>
<g filter="url(#filter1_f)">
<path d="M51.2973 27.3866L90.0297 53.9893L127.299 25.3732L113.968 70.4307L152.7 97.0333L105.728 98.2777L92.3966 143.335L76.698 99.0467L29.7262 100.291L66.9958 71.675L51.2973 27.3866Z" fill="url(#paint1_radial)"/>
</g>
<defs>
<filter id="filter0_f" x="28.1569" y="13" width="124.686" height="118.682" filterUnits="userSpaceOnUse" color-interpolation-filters="sRGB">
<feFlood flood-opacity="0" result="BackgroundImageFix"/>
<feBlend mode="normal" in="SourceGraphic" in2="BackgroundImageFix" result="shape"/>
<feGaussianBlur stdDeviation="0.5" result="effect1_foregroundBlur"/>
</filter>
<filter id="filter1_f" x="1.51062" y="-11.0723" width="170.824" height="169.715" filterUnits="userSpaceOnUse" color-interpolation-filters="sRGB">
<feFlood flood-opacity="0" result="BackgroundImageFix"/>
<feBlend mode="normal" in="SourceGraphic" in2="BackgroundImageFix" result="shape"/>
<feGaussianBlur stdDeviation="0.5" result="effect1_foregroundBlur"/>
</filter>
<radialGradient id="paint0_radial" cx="0" cy="0" r="1" gradientUnits="userSpaceOnUse" gradientTransform="translate(90.5 78.5) rotate(90) scale(64.5)">
<stop stop-color="#97F89A" stop-opacity="0.69"/>
<stop offset="0.0001" stop-color="#00FF57"/>
<stop offset="0.364583" stop-color="#FFF500"/>
<stop offset="0.578125" stop-color="#FFB800"/>
<stop offset="1" stop-color="#FF0000"/>
</radialGradient>
<radialGradient id="paint1_radial" cx="0" cy="0" r="1" gradientUnits="userSpaceOnUse" gradientTransform="translate(90.6839 78.6839) rotate(52.4825) scale(64.6739)">
<stop offset="0.1875" stop-color="#979AF8"/>
<stop offset="0.505208" stop-color="#77E7FF"/>
<stop offset="1" stop-color="#2FF42B"/>
</radialGradient>
</defs>
</svg>
