<svg width="512" height="512" viewBox="0 0 512 512" fill="none" xmlns="http://www.w3.org/2000/svg">
<g clip-path="url(#clip0)">
<rect width="512" height="512" fill="white"/>
<path d="M93.5919 479.45C89.6419 479.45 86.0169 478.525 82.7169 476.675C79.4169 474.825 76.7919 472.225 74.8419 468.875C72.8919 465.475 71.9169 461.575 71.9169 457.175C71.9169 452.275 73.0169 447.6 75.2169 443.15C77.4669 438.65 80.3669 435.05 83.9169 432.35C87.5169 429.65 91.2169 428.3 95.0169 428.3C97.1669 428.3 99.0169 428.575 100.567 429.125C102.117 429.625 103.592 430.325 104.992 431.225C105.142 430.925 105.392 430.675 105.742 430.475C106.092 430.275 106.492 430.175 106.942 430.175C107.592 430.175 108.142 430.4 108.592 430.85C109.042 431.3 109.267 431.85 109.267 432.5V437.3C109.267 437.95 109.017 438.525 108.517 439.025C108.067 439.475 107.517 439.7 106.867 439.7C106.217 439.7 105.642 439.475 105.142 439.025C104.692 438.575 104.467 438.025 104.467 437.375V436.775C103.367 435.725 102.092 434.85 100.642 434.15C99.1919 433.4 97.3169 433.025 95.0169 433.025C92.0669 433.025 89.1919 434.15 86.3919 436.4C83.5919 438.65 81.2919 441.65 79.4919 445.4C77.7419 449.1 76.8669 453.025 76.8669 457.175C76.8669 460.725 77.6419 463.825 79.1919 466.475C80.7419 469.125 82.7919 471.175 85.3419 472.625C87.8919 474.025 90.6419 474.725 93.5919 474.725C99.3419 474.725 104.017 472.375 107.617 467.675C107.917 467.325 108.192 467.1 108.442 467C108.742 466.85 109.092 466.775 109.492 466.775C110.142 466.775 110.692 467 111.142 467.45C111.642 467.85 111.892 468.425 111.892 469.175C111.892 469.775 111.742 470.25 111.442 470.6C109.342 473.45 106.742 475.65 103.642 477.2C100.542 478.7 97.1919 479.45 93.5919 479.45ZM123.011 479.45C122.361 479.45 121.786 479.225 121.286 478.775C120.836 478.275 120.611 477.7 120.611 477.05V431.675C120.611 430.725 120.736 430.025 120.986 429.575C121.286 429.125 121.836 428.825 122.636 428.675C123.436 428.525 124.736 428.45 126.536 428.45H128.711C137.161 428.45 143.661 429.8 148.211 432.5C152.761 435.2 155.036 439.025 155.036 443.975C155.036 450.575 150.511 455.475 141.461 458.675C143.811 460.175 146.386 462.4 149.186 465.35C152.036 468.25 154.511 471.8 156.611 476C156.811 476.25 156.911 476.6 156.911 477.05C156.911 477.7 156.686 478.275 156.236 478.775C155.786 479.225 155.211 479.45 154.511 479.45C153.661 479.45 152.961 479 152.411 478.1C145.411 466.55 138.686 460.775 132.236 460.775C130.586 460.775 128.286 461 125.336 461.45V477.05C125.336 477.7 125.111 478.275 124.661 478.775C124.211 479.225 123.661 479.45 123.011 479.45ZM125.336 456.8C129.236 456.7 133.086 456.2 136.886 455.3C140.736 454.35 143.936 452.925 146.486 451.025C149.036 449.125 150.311 446.775 150.311 443.975C150.311 440.425 148.411 437.725 144.611 435.875C140.811 434.025 135.436 433.1 128.486 433.1C127.086 433.1 126.036 433.125 125.336 433.175V456.8ZM198.064 479.525C197.564 479.525 197.089 479.375 196.639 479.075C196.239 478.775 195.964 478.375 195.814 477.875L189.664 460.025L170.989 464.15L165.514 477.95C165.364 478.4 165.089 478.75 164.689 479C164.289 479.3 163.839 479.45 163.339 479.45C162.689 479.45 162.139 479.225 161.689 478.775C161.289 478.325 161.089 477.75 161.089 477.05C161.089 476.75 161.189 476.325 161.389 475.775L165.514 465.2C165.064 465.35 164.614 465.425 164.164 465.425C163.564 465.375 163.064 465.15 162.664 464.75C162.264 464.3 162.064 463.75 162.064 463.1C162.064 462.55 162.239 462.05 162.589 461.6C162.939 461.15 163.364 460.875 163.864 460.775L167.614 459.95L179.614 429.275C179.814 428.825 180.139 428.475 180.589 428.225C181.039 427.925 181.489 427.775 181.939 427.775C182.439 427.775 182.889 427.925 183.289 428.225C183.689 428.475 183.989 428.85 184.189 429.35L200.014 475.4C200.314 476.3 200.464 476.9 200.464 477.2C200.464 477.8 200.239 478.35 199.789 478.85C199.339 479.3 198.764 479.525 198.064 479.525ZM188.014 455.525L181.639 436.85L173.014 458.75L188.014 455.525ZM211.343 479.525C210.693 479.525 210.118 479.275 209.618 478.775C209.118 478.275 208.868 477.7 208.868 477.05V431.15C208.868 430.5 209.093 429.95 209.543 429.5C210.043 429 210.643 428.75 211.343 428.75H243.068C243.768 428.75 244.343 428.975 244.793 429.425C245.243 429.875 245.468 430.45 245.468 431.15C245.468 431.8 245.218 432.375 244.718 432.875C244.268 433.325 243.718 433.55 243.068 433.55H213.743V450.425H236.468C237.118 450.425 237.668 450.675 238.118 451.175C238.618 451.625 238.868 452.2 238.868 452.9C238.868 453.55 238.618 454.125 238.118 454.625C237.668 455.075 237.118 455.3 236.468 455.3H213.743V477.05C213.743 477.75 213.493 478.35 212.993 478.85C212.543 479.3 211.993 479.525 211.343 479.525ZM265.504 479.45C264.854 479.45 264.304 479.225 263.854 478.775C263.404 478.275 263.179 477.7 263.179 477.05V433.475H249.004C248.354 433.475 247.779 433.25 247.279 432.8C246.829 432.35 246.604 431.8 246.604 431.15C246.604 430.5 246.829 429.95 247.279 429.5C247.779 429 248.354 428.75 249.004 428.75H282.079C282.729 428.75 283.279 428.975 283.729 429.425C284.179 429.875 284.404 430.45 284.404 431.15C284.404 431.8 284.179 432.35 283.729 432.8C283.279 433.25 282.729 433.475 282.079 433.475H267.904V477.05C267.904 477.7 267.654 478.275 267.154 478.775C266.704 479.225 266.154 479.45 265.504 479.45ZM305.589 479.45C301.139 479.45 297.339 478.5 294.189 476.6C291.089 474.65 288.914 472.125 287.664 469.025C287.364 468.525 287.214 468.025 287.214 467.525C287.214 466.825 287.464 466.25 287.964 465.8C288.464 465.3 289.064 465.05 289.764 465.05C291.014 465.05 291.839 465.7 292.239 467C293.089 469.35 294.739 471.275 297.189 472.775C299.689 474.225 302.489 474.95 305.589 474.95C308.039 474.95 310.214 474.525 312.114 473.675C314.064 472.825 315.564 471.675 316.614 470.225C317.714 468.775 318.264 467.15 318.264 465.35C318.264 463.05 317.314 461.05 315.414 459.35C313.514 457.65 310.289 456.175 305.739 454.925C295.289 452.075 290.064 447.425 290.064 440.975C290.064 438.525 290.739 436.35 292.089 434.45C293.489 432.55 295.489 431.05 298.089 429.95C300.739 428.85 303.814 428.3 307.314 428.3C312.264 428.3 316.114 429.25 318.864 431.15C321.614 433 322.989 435.5 322.989 438.65C322.989 439.3 322.764 439.875 322.314 440.375C321.864 440.825 321.314 441.05 320.664 441.05C320.064 441.05 319.539 440.85 319.089 440.45C318.689 440.05 318.464 439.575 318.414 439.025C318.164 437.125 317.014 435.575 314.964 434.375C312.964 433.175 310.339 432.575 307.089 432.575C303.189 432.575 300.164 433.3 298.014 434.75C295.914 436.2 294.864 438.2 294.864 440.75C294.864 442.9 295.839 444.725 297.789 446.225C299.789 447.725 302.839 449.05 306.939 450.2C312.339 451.7 316.364 453.675 319.014 456.125C321.714 458.525 323.064 461.475 323.064 464.975C323.064 467.675 322.264 470.15 320.664 472.4C319.064 474.6 316.914 476.325 314.214 477.575C311.514 478.825 308.639 479.45 305.589 479.45ZM331.746 479C331.046 479 330.446 478.775 329.946 478.325C329.496 477.875 329.271 477.325 329.271 476.675C329.271 476.025 329.496 475.5 329.946 475.1C330.446 474.65 331.046 474.425 331.746 474.425H338.871V433.325H331.746C331.046 433.325 330.446 433.1 329.946 432.65C329.496 432.2 329.271 431.65 329.271 431C329.271 430.35 329.496 429.825 329.946 429.425C330.446 428.975 331.046 428.75 331.746 428.75H350.721C351.371 428.75 351.921 428.975 352.371 429.425C352.821 429.825 353.046 430.35 353.046 431C353.046 431.65 352.821 432.2 352.371 432.65C351.921 433.1 351.371 433.325 350.721 433.325H343.671V474.425H350.721C351.421 474.425 351.971 474.65 352.371 475.1C352.821 475.5 353.046 476.025 353.046 476.675C353.046 477.325 352.821 477.875 352.371 478.325C351.921 478.775 351.371 479 350.721 479H331.746ZM364.566 479.525C363.916 479.525 363.341 479.275 362.841 478.775C362.341 478.275 362.091 477.7 362.091 477.05V431.15C362.091 430.5 362.316 429.95 362.766 429.5C363.266 429 363.866 428.75 364.566 428.75H396.291C396.991 428.75 397.566 428.975 398.016 429.425C398.466 429.875 398.691 430.45 398.691 431.15C398.691 431.8 398.441 432.375 397.941 432.875C397.491 433.325 396.941 433.55 396.291 433.55H366.966V450.425H389.691C390.341 450.425 390.891 450.675 391.341 451.175C391.841 451.625 392.091 452.2 392.091 452.9C392.091 453.55 391.841 454.125 391.341 454.625C390.891 455.075 390.341 455.3 389.691 455.3H366.966V477.05C366.966 477.75 366.716 478.35 366.216 478.85C365.766 479.3 365.216 479.525 364.566 479.525ZM413.177 479.45C412.527 479.45 411.977 479.2 411.527 478.7C411.077 478.2 410.852 477.65 410.852 477.05C410.852 476.55 411.002 476.075 411.302 475.625L418.652 463.25L400.577 432.2C400.227 431.7 400.052 431.2 400.052 430.7C400.052 430.1 400.302 429.575 400.802 429.125C401.302 428.625 401.877 428.375 402.527 428.375C402.877 428.375 403.227 428.5 403.577 428.75C403.977 428.95 404.277 429.225 404.477 429.575L421.427 458.6L438.677 429.575C439.127 428.775 439.802 428.375 440.702 428.375C441.302 428.375 441.852 428.6 442.352 429.05C442.852 429.5 443.102 430.05 443.102 430.7C443.102 431.15 442.877 431.725 442.427 432.425L415.202 478.25C415.002 478.6 414.702 478.875 414.302 479.075C413.952 479.325 413.577 479.45 413.177 479.45Z" fill="#979AF8"/>
<g filter="url(#filter0_f)">
<path d="M256 14L300.903 152.197H446.211L328.654 237.607L373.557 375.803L256 290.393L138.443 375.803L183.346 237.607L65.7887 152.197H211.097L256 14Z" fill="url(#paint0_radial)"/>
</g>
<g filter="url(#filter1_f)">
<path d="M139.638 52.1953L256.583 138.435L374.746 53.8718L328.865 191.743L445.804 277.991L300.503 276.96L254.612 414.828L210.691 276.32L65.3907 275.278L183.547 190.706L139.638 52.1953Z" fill="url(#paint1_radial)"/>
</g>
</g>
<defs>
<filter id="filter0_f" x="64.7887" y="13" width="382.423" height="363.803" filterUnits="userSpaceOnUse" color-interpolation-filters="sRGB">
<feFlood flood-opacity="0" result="BackgroundImageFix"/>
<feBlend mode="normal" in="SourceGraphic" in2="BackgroundImageFix" result="shape"/>
<feGaussianBlur stdDeviation="0.5" result="effect1_foregroundBlur"/>
</filter>
<filter id="filter1_f" x="-16.04" y="-59.5079" width="521.925" height="517.621" filterUnits="userSpaceOnUse" color-interpolation-filters="sRGB">
<feFlood flood-opacity="0" result="BackgroundImageFix"/>
<feBlend mode="normal" in="SourceGraphic" in2="BackgroundImageFix" result="shape"/>
<feGaussianBlur stdDeviation="0.5" result="effect1_foregroundBlur"/>
</filter>
<radialGradient id="paint0_radial" cx="0" cy="0" r="1" gradientUnits="userSpaceOnUse" gradientTransform="translate(256 214) rotate(90) scale(200)">
<stop stop-color="#97F89A" stop-opacity="0.69"/>
<stop offset="0.0001" stop-color="#00FF57"/>
<stop offset="0.364583" stop-color="#FFF500"/>
<stop offset="0.578125" stop-color="#FFB800"/>
<stop offset="1" stop-color="#FF0000"/>
</radialGradient>
<radialGradient id="paint1_radial" cx="0" cy="0" r="1" gradientUnits="userSpaceOnUse" gradientTransform="translate(256.038 214.833) rotate(54.4086) scale(200)">
<stop offset="0.1875" stop-color="#979AF8"/>
<stop offset="0.505208" stop-color="#77E7FF"/>
<stop offset="1" stop-color="#2FF42B"/>
</radialGradient>
<clipPath id="clip0">
<rect width="512" height="512" fill="white"/>
</clipPath>
</defs>
</svg>
