<svg width="512" height="512" viewBox="0 0 512 512" fill="none" xmlns="http://www.w3.org/2000/svg">
<rect width="512" height="512" rx="57" fill="#CFD3F9"/>
<rect x="19.8196" y="21.0936" width="465.755" height="431.461" rx="57" fill="#939CEE"/>
<path d="M211.379 375.85H164.406V129.4C164.406 121.036 163.675 115.371 162.211 112.403C161.041 109.436 158.699 107.277 155.187 105.928C150.212 104.31 145.676 102.961 141.578 101.882C137.481 100.802 135.432 98.1046 135.432 93.788C135.432 86.5037 141.139 82.8616 152.553 82.8616H195.136C205.965 82.8616 211.379 87.1782 211.379 95.8114V205.884H324.201V82.4569H371.613V375.85H324.201V235.831H211.379V375.85Z" fill="#CFD3F9"/>
<rect x="13.2129" y="82.4569" width="188.284" height="55.6105" rx="7" fill="#CFD3F9"/>
<rect x="323.716" y="329.828" width="188.284" height="55.6105" rx="7" fill="#CFD3F9"/>
</svg>
